<svg width="36" height="36" viewBox="0 0 36 36" fill="none" xmlns="http://www.w3.org/2000/svg">
<path fill-rule="evenodd" clip-rule="evenodd" d="M16.7162 0C15.0593 0 13.7162 1.34315 13.7162 3V4.98996C12.9696 5.24314 12.2513 5.56069 11.5674 5.93625L10.2707 4.66857C9.08595 3.51034 7.18699 3.53227 6.02928 4.71754L4.23381 6.55577C3.0761 7.74105 3.09803 9.64083 4.2828 10.7991L5.69768 12.1822C5.47024 12.6581 5.26798 13.1491 5.09269 13.6534L3.02822 13.6436C1.37138 13.6358 0.0219192 14.9726 0.0141088 16.6294L0.00198718 19.2008C-0.0058232 20.8577 1.33098 22.2071 2.98781 22.215L4.79074 22.2235C5.00036 23.0018 5.27287 23.7531 5.60226 24.4712L4.42157 25.6686C3.25829 26.8484 3.27126 28.7483 4.45056 29.9121L6.27946 31.717C7.45875 32.8808 9.35779 32.8678 10.5211 31.688L11.3805 30.8163C12.12 31.2378 12.9012 31.5908 13.7162 31.8672V33C13.7162 34.6569 15.0593 36 16.7162 36H19.2838C20.9407 36 22.2838 34.6569 22.2838 33V31.8671C23.1311 31.5798 23.9418 31.2096 24.7071 30.7658L25.7292 31.765C26.9139 32.9232 28.8129 32.9013 29.9706 31.716L31.7661 29.8778C32.9238 28.6925 32.9019 26.7927 31.7171 25.6345L30.4374 24.3835C30.7317 23.7305 30.979 23.0504 31.175 22.3479L32.9717 22.3564C34.6286 22.3642 35.978 21.0275 35.9858 19.3706L35.998 16.7992C36.0058 15.1424 34.669 13.7929 33.0121 13.7851L30.949 13.7754C30.7196 13.0959 30.4414 12.44 30.1187 11.8121L31.5788 10.3313C32.7421 9.15151 32.7291 7.25164 31.5498 6.08784L29.7209 4.28296C28.5416 3.11916 26.6426 3.13213 25.4793 4.31193L24.068 5.74327C23.4948 5.45087 22.8989 5.19859 22.2838 4.99002V3C22.2838 1.34315 20.9407 0 19.2838 0H16.7162ZM17.9999 24C21.3122 24 23.9973 21.3137 23.9973 18C23.9973 14.6863 21.3122 12 17.9999 12C14.6877 12 12.0025 14.6863 12.0025 18C12.0025 21.3137 14.6877 24 17.9999 24Z" fill="white"/>
</svg>
