<svg width="60" height="60" viewBox="0 0 60 60" fill="none" xmlns="http://www.w3.org/2000/svg">
<path fill-rule="evenodd" clip-rule="evenodd" d="M41 27.4767C40.7239 27.1667 40.3905 26.8917 40 26.6662L19 14.5419C16.3333 13.0023 13 14.9268 13 18.006V42.2547C13 45.3339 16.3333 47.2584 19 45.7188L40 33.5944C40.3905 33.369 40.7239 33.094 41 32.7839V43.6303C41 45.011 42.1193 46.1303 43.5 46.1303C44.8807 46.1303 46 45.011 46 43.6303V17.6303C46 16.2496 44.8807 15.1303 43.5 15.1303C42.1193 15.1303 41 16.2496 41 17.6303V27.4767Z" fill="black"/>
<rect x="1" y="1" width="58" height="58" rx="8" fill="black" fill-opacity="0.01" stroke="black" stroke-width="2"/>
</svg>
